<?xml version="1.0" encoding="UTF-8" standalone="no"?>
<svg width="100px" height="100px" viewBox="0 0 100 100" version="1.1" xmlns="http://www.w3.org/2000/svg" xmlns:xlink="http://www.w3.org/1999/xlink" xmlns:sketch="http://www.bohemiancoding.com/sketch/ns">
    <title>xbrlfiling</title>
    <description>Created with Sketch (http://www.bohemiancoding.com/sketch)</description>
    <defs></defs>
    <g id="Page-1" stroke="none" stroke-width="1" fill="none" fill-rule="evenodd" sketch:type="MSPage">
        <g id="book" sketch:type="MSLayerGroup">
            <path d="M6,100 L94,100 C97.313,100 100,97.313 100,94 L100,6 C100,2.686 97.313,0 94,0 L6,0 C2.687,0 0,2.686 0,6 L0,94 C0,97.313 2.687,100 6,100 L6,100 Z" id="Shape" fill="#C0392B" sketch:type="MSShapeGroup"></path>
            <path d="M100,30 L99.975,30 C99.722,27.198 97.369,25 94.5,25 L6.25,25 C2.937,25 0,22.314 0,19 L0,6 C0,2.687 2.687,0 6,0 L94,0 C97.313,0 100,2.687 100,6.001 L100,30 L100,30 Z" id="Shape" fill="#E74C3C" sketch:type="MSShapeGroup"></path>
            <path d="M5,100 L7,100 L7,0 L5,0 L5,100 L5,100 Z" id="Shape" opacity="0.15" fill="#000000" sketch:type="MSShapeGroup"></path>
            <path d="M7,100 L9,100 L9,0 L7,0 L7,100 L7,100 Z" id="Shape" opacity="0.15" fill="#FFFFFF" sketch:type="MSShapeGroup"></path>
            <path d="M100,10.001 C100,7.239 97.762,5.001 95,5.001 L7,5.001 C5.896,5.001 5,5.897 5,7.001 L5,18.001 C5,19.105 5.896,20.001 7,20.001 L94,20.001 C97.313,20.001 100,22.688 100,26.001 L100,11.001 L99.899,11.001 C99.965,10.678 100,10.343 100,10.001 L100,10.001 Z" id="Shape" fill="#FFFFFF" sketch:type="MSShapeGroup"></path>
            <path d="M100,15.423 L100,11.502 C0,1.77635684e-15 100.183,7.502 95,7.502 L5,7.502 L5,9.502 L94,9.502 C97.184,9.502 99.781,11.984 99.98,15.118 C99.873,14.118 99.191,11.503 95,11.503 L5,11.503 L5,13.503 L94,13.503 C97.184,13.503 99.781,15.985 99.98,19.119 C99.873,18.118 99.191,15.503 95,15.503 L5,15.503 L5,17.503 L94,17.503 C97.313,17.503 100,20.19 100,23.503 L100,15.423 L100,15.423 Z" id="Shape" opacity="0.2" fill="#95A5A6" sketch:type="MSShapeGroup"></path>
            <path d="M80,100 L90,100 L90,25 L80,25 L80,100 L80,100 Z" id="Shape" fill="#2980B9" sketch:type="MSShapeGroup"></path>
            <path d="M80,25.007 L90,25.007 L90,0 L80,0 L80,25.007 L80,25.007 Z" id="Shape" fill="#3498DB" sketch:type="MSShapeGroup"></path>
            <path d="M82,100 L84,100 L84,0 L82,0 L82,100 L82,100 Z M86,0 L86,100 L88,100 L88,0 L86,0 L86,0 Z" id="Shape" opacity="0.1" fill="#000000" sketch:type="MSShapeGroup"></path>
            <text id="XBRL" sketch:type="MSTextLayer" font-family="Helvetica" font-size="24" font-weight="normal" fill="#FFFFFF">
                <tspan x="16" y="65">XBRL</tspan>
            </text>
        </g>
    </g>
</svg>