<?xml version="1.0" encoding="UTF-8" standalone="no"?>
<svg width="148px" height="71px" viewBox="0 0 148 71" version="1.1" xmlns="http://www.w3.org/2000/svg" xmlns:xlink="http://www.w3.org/1999/xlink" xmlns:sketch="http://www.bohemiancoding.com/sketch/ns">
    <title>Slice 1</title>
    <description>Created with Sketch (http://www.bohemiancoding.com/sketch)</description>
    <defs></defs>
    <g id="Page-1" stroke="none" stroke-width="1" fill="none" fill-rule="evenodd" sketch:type="MSPage">
        <g id="Canvas-1" sketch:type="MSLayerGroup" transform="translate(4.000000, 2.000000)">
            <g id="Layer-1" sketch:type="MSShapeGroup">
                <path d="M85.3166487,12.98304 L85.0816118,52.3517292 C85.0816118,57.8045018 66.0107136,65.6083114 42.6574422,65.6083114 C19.3041708,65.6083114 0.350788295,58.1570572 0.350788295,52.7042846 L0.46830677,13.2180769 C0.46830677,7.76531368 19.3041708,-0.24638145 42.6574422,-0.24638145 C66.0107136,-0.24638145 85.3166487,7.53027673 85.3166487,12.98304 L85.3166487,12.98304 Z" id="Shape" fill="#28C165"></path>
                <g id="Group" transform="translate(15.333719, 15.680965)" fill="#FEFDFF">
                    <path d="M0.123796611,33.9008701 L23.3804068,33.9008701 L23.3804068,26.8534124 L9.09755932,26.8534124 C9.33247458,22.5309718 22.8635932,20.5107006 22.8635932,10.0334802 C22.8635932,2.8920565 16.8967458,-0.255807909 11.3997288,-0.255807909 C2.66088136,-0.255807909 -0.44,6.97958192 -0.44,6.97958192 L5.66779661,11.0671073 C5.66779661,11.0671073 7.45315254,7.49639548 10.648,7.49639548 C12.3863729,7.49639548 14.2656949,8.48303955 14.2656949,10.8321921 C14.2656949,15.6714463 -0.252067796,17.8796497 -0.252067796,30.2831751 C-0.252067796,31.4107684 -0.111118644,32.5853446 0.123796611,33.9008701 C0.123796611,33.9008701 -0.111118644,32.5853446 0.123796611,33.9008701 Z M27.7968136,24.0344294 C27.7968136,29.3904972 32.0722712,34.4646667 40.247322,34.4646667 C48.563322,34.4646667 52.6978305,29.3435141 52.6978305,24.2223616 C52.6978305,20.8395819 51.0064407,18.6783616 48.7512542,17.1279209 C49.0801356,16.7050734 52.0400678,13.0873785 52.0400678,9.46968362 C52.0400678,3.22093785 46.9189153,-0.255807909 40.6701695,-0.255807909 C32.824,-0.255807909 29.3942373,4.53646328 29.3942373,9.42270057 C29.3942373,12.2886667 30.6627797,14.3089379 32.4481356,15.8593785 C31.4145085,16.6580904 27.7968136,19.7119887 27.7968136,24.0344294 C27.7968136,24.0344294 27.7968136,19.7119887 27.7968136,24.0344294 Z M44.2878644,23.7995141 C44.2878644,26.0077175 42.7374237,27.2292768 40.247322,27.2292768 C37.9921356,27.2292768 36.2067797,25.490904 36.2067797,23.3296836 C36.2067797,21.4973446 37.1934237,20.0878531 37.9921356,19.2421582 C41.2809492,20.7456158 44.2878644,21.873209 44.2878644,23.7995141 C44.2878644,23.7995141 44.2878644,21.873209 44.2878644,23.7995141 Z M37.428339,9.61063277 C37.428339,8.15415819 38.368,6.97958192 40.4822373,6.97958192 C42.6904407,6.97958192 44.0059661,8.20114124 44.0059661,10.0804633 C44.0059661,12.1477175 43.1132881,13.6981582 42.8313898,14.2149718 C39.8714576,12.9464294 37.428339,11.8188362 37.428339,9.61063277 C37.428339,9.61063277 37.428339,11.8188362 37.428339,9.61063277 Z" id="28"></path>
                </g>
                <path d="M87.784,48 L95.656,48 L95.656,40.128 L87.784,40.128 L87.784,48 Z M101.608,20.16 L109.72,20.16 L109.72,13.68 L101.608,13.68 L101.608,20.16 Z M101.512,48 L109.816,48 L109.816,23.28 L101.512,23.28 L101.512,48 Z M114.136,35.712 C114.136,43.44 120.376,48.576 128.152,48.576 C135.928,48.576 142.168,43.44 142.168,35.712 C142.168,27.936 135.928,22.704 128.104,22.704 C120.376,22.704 114.136,27.936 114.136,35.712 Z M122.536,35.712 C122.536,31.968 125.128,29.616 128.152,29.616 C131.176,29.616 133.768,31.968 133.768,35.712 C133.768,39.408 131.176,41.664 128.152,41.664 C125.128,41.664 122.536,39.408 122.536,35.712 Z" id=".io" fill="#3F3F3F"></path>
            </g>
        </g>
    </g>
</svg>