<?xml version="1.0" encoding="UTF-8" standalone="no"?>
<svg viewBox="0 0 366 235" version="1.1" xmlns="http://www.w3.org/2000/svg" xmlns:xlink="http://www.w3.org/1999/xlink" xmlns:sketch="http://www.bohemiancoding.com/sketch/ns">
	<title>reporting</title>
	<description>Created with Sketch (http://www.bohemiancoding.com/sketch)</description>
	<defs></defs>
	<g id="Page 1" stroke="none" stroke-width="1" fill="none" fill-rule="evenodd">
		<path d="M12.0077621,107 C7.58519722,107 4,110.581133 4,115.007762 L4,133.992238 C4,138.414803 7.58113254,142 12.0077621,142 L30.9922379,142 C35.4148028,142 39,138.418867 39,133.992238 L39,115.007762 C39,110.585197 35.4188675,107 30.9922379,107 L12.0077621,107 Z M12.0077621,107" id="Rectangle 1" fill="#333333"></path>
		<path d="M58.0077621,73 C53.5851972,73 50,76.579658 50,80.9957852 L50,135.004215 C50,139.420165 53.5811325,143 58.0077621,143 L76.9922379,143 C81.4148028,143 85,139.420342 85,135.004215 L85,80.9957852 C85,76.579835 81.4188675,73 76.9922379,73 L58.0077621,73 Z M58.0077621,73" id="Rectangle 1" fill="#333333"></path>
		<path d="M105.007762,37 C100.585197,37 97,40.5839622 97,44.9998548 L97,134.000145 C97,138.418343 100.581133,142 105.007762,142 L123.992238,142 C128.414803,142 132,138.416038 132,134.000145 L132,44.9998548 C132,40.581657 128.418867,37 123.992238,37 L105.007762,37 Z M105.007762,37" id="Rectangle 1" fill="#333333"></path>
		<path d="M151.007762,2 C146.585197,2 143,5.58365403 143,10.0043643 L143,133.995636 C143,138.416324 146.581133,142 151.007762,142 L169.992238,142 C174.414803,142 178,138.416346 178,133.995636 L178,10.0043643 C178,5.58367594 174.418867,2 169.992238,2 L151.007762,2 Z M151.007762,2" id="Rectangle 1" fill="#333333"></path>
		<path d="M340.481292,162.975805 L299.082292,162.975805 L262.383364,86.872945 L208.248951,171.907247 L160.231483,171.907247 L139.052384,214.662827 L85.6716268,121.8645 L68.5458258,162.975805 L7.50792531,162.975804" id="Line" stroke="#297FB9" stroke-width="16" stroke-linecap="square"></path>
		<text id="-" fill="#297FB9" font-family="Cambria Math" font-size="72" font-weight="normal" x="162" y="244.410156">
			<tspan>-</tspan>
		</text>
		<text id="+" fill="#297FB9" font-family="Cambria Math" font-size="48" font-weight="normal" x="245" y="77.2734375">
			<tspan>+</tspan>
		</text>
		<g id="loup" transform="translate(197.000000, 4.000000)" stroke="#333333" stroke-width="16">
			<path d="M105.36958,97.2318673 L105.36958,106.732992 C107.4288,107.562523 108.877332,109.571633 108.877332,111.918385 L108.877332,158.100905 C108.877332,161.190929 106.362804,163.692773 103.260977,163.692773 L79.4161671,163.692773 C76.3084238,163.692773 73.7998123,161.189208 73.7998123,158.100905 L73.7998123,111.918385 C73.7998123,109.848263 74.9283719,108.042126 76.6060138,107.075372 L76.6060138,97.2318673 L90.6370216,97.2318673 C65.4524076,97.2318673 45.0362464,76.8728006 45.0362464,51.7586163 C45.0362464,26.6444319 65.4524076,6.28536523 90.6370216,6.28536523 C115.821636,6.28536523 136.237797,26.6444319 136.237797,51.7586163 C136.237797,76.8728006 115.821636,97.2318673 90.6370216,97.2318673 L105.36958,97.2318673 Z M105.36958,97.2318673" id="Oval 1" transform="translate(90.637022, 84.989069) rotate(-51.000000) translate(-90.637022, -84.989069) "></path>
		</g>
	</g>
</svg>